<svg version="1" xmlns="http://www.w3.org/2000/svg" width="392" height="392" viewBox="0 0 294.000000 294.000000"><path d="M179 20.5c-3.6.7-10.3 1.3-14.9 1.4-11.1.1-20.5 1.8-26.2 4.7-6 3-18.1 12.2-29.4 22.3-5.3 4.8-12.7 10.2-18.1 13.2C78.1 68.9 65.5 78.6 54 89.9c-8.3 8.2-10 10.6-3.3 4.7 3.4-3 3.8-1.3.6 2.5-1.6 1.9-4 5-5.5 7l-2.6 3.6 5.1-.5c3.5-.2 5.8.1 7.2 1.1 1.8 1.4 2.4 1 8.8-5.9 3.8-4.1 7.3-7.4 7.8-7.4s-1.1 3-3.6 6.6c-6.1 8.8-6 9.4 1.8 9.4 3.6 0 7.4.6 9.1 1.5 2.6 1.4 3.1 1.4 4.6 0 2.3-2.1 3.3-1.9 1.8.5-1.5 2.4-.7 3.3 2.9 3.2 1.5 0 3.4.5 4.2 1.2.8.6.3-.7-1.2-2.9-3.5-5.1-3.4-7.5.4-11.1 4.1-3.9 8.9-11 10.6-15.9.7-2.2 2.4-5.6 3.7-7.5 1.3-1.9 2.7-5.6 3.1-8.2.3-2.6 1.4-5.7 2.4-6.9 1.7-2.1 2.1-2.2 7.6-1.1 3.2.7 6.1 1.4 6.4 1.7.3.3-1.2 3.9-3.2 8.1-2 4.1-3.7 7.7-3.7 8.1 0 .3 2.2-2.5 4.9-6.3 2.6-3.8 8.9-10.8 13.8-15.5 10.3-9.9 19.5-15.1 27.8-15.5 2.8-.2 4.2-.1 3.3.2-2.6.8-2.2 1.6 3 5.2l4.7 3.4-3.3-.6-3.4-.6 2.5 3c3.1 3.6 4.4 7.3 2.9 7.8-.8.2-.8 1.1-.1 3 1.7 4.3.3 6.6-8.3 14.7-10.1 9.2-17.6 14.4-33.9 23-6.8 3.6-11.5 6.4-10.4 6.1 4-1.1 16-3.4 16.2-3.2.2.1-2.4 2.1-5.6 4.4-6.3 4.4-19.8 18.5-23.4 24.5l-2.2 3.5-4.2-2.5c-3.7-2.1-4.2-2.9-3.8-5.1.4-1.9.3-2.1-.3-.9-.4 1-2 2.4-3.5 3.2-2.7 1.4-2.7 1.3-7.1-5.4-4-6.2-4.8-6.9-9.2-8-2.7-.7-8.6-2.9-13.2-4.8-8-3.4-8.5-3.5-13.5-2.4-5.8 1.3-9.4 3.8-21.3 14.6C21.9 136.1 21 138.1 21 150c0 6.2-.5 8.6-2.9 13.5-2.9 6.1-10.7 14.4-15.6 16.7L0 181.3V294h168.8l.7-6.5c.4-3.5.8-10.4.9-15.2l.1-8.8-5.2-8c-3.7-5.6-5.3-9-5.3-11.3 0-2-2.5-9-5.9-16.5-6.4-14.5-7.6-18-8.6-24.7-.4-2.9-2.2-6.8-5.2-11.2-5.3-7.8-5.3-9.9.2-15.4 3.5-3.4 3.5-3.5 1.9-6.5-.8-1.7-1.3-3.3-1.1-3.6 1.5-1.5 32.8 20 34.1 23.4.4.9 1.3 5.6 2.1 10.6 1.7 10.8 2.4 11.7 14.8 18.9 4.9 2.9 9.9 6.5 11.2 8 1.5 1.8 3.2 6.6 5 14 3.2 13.7 6.3 20.8 10.2 23.6 3.1 2.2 13.5 5.4 23.8 7.3 6.8 1.3 9.7 3.8 17.7 15.2l4.8 6.7h29v-28.8l-3.1-.6c-1.7-.3-8.5-.6-15-.6-13.7 0-12.6.7-15.7-11.3-1.1-4.3-2.7-8.8-3.5-10.1-1-1.4-4.8-3.6-9.9-5.6-10.9-4.3-21.2-9.7-23.5-12.2-1.5-1.7-1.9-4.4-2.4-17.2-.4-10.9-1-15.9-2.1-18.1-1.6-3.1-8.9-10.3-14.1-14-2.4-1.8-2.7-2.4-1.9-4.5 2.2-5.6 7.9-11.5 21.4-22.3 16.4-13.1 17-13.7 19.8-20 8.4-19 9-49.8 1.3-66.9-4.3-9.6-22.7-25.4-43.9-37.7-8.6-5-12.5-5.6-22.4-3.6zm-.2 97.6c2.7 1.1 2.8 3.8.2 8.7-4.4 8.2-5.9 9.3-15.1 10.3-4.6.5-9 1.1-9.7 1.4-.7.2-4.1-1-7.6-2.7-4.3-2.1-6.9-2.9-8.2-2.3-1.5.6-1 1 2.6 2 2.5.7 6.2 2.2 8.3 3.3 3.4 1.8 3.6 2.2 2 3-1 .6-3.1.8-4.6.5-2-.4-2.7-.1-2.7 1 0 .9.5 1.9 1 2.2 1.8 1.1 1.1 2.3-1 1.8-2.4-.6-2.8 1.8-.5 3.7 2.5 2.1 1.7 4.7-2.2 7.2l-3.8 2.3 2.8.3c3.1.4 3.6 1.8.8 2.7-1.4.4-3.2-.8-7.1-4.9-2.8-3-8.1-7.4-11.6-9.7-3.6-2.3-6.3-4.5-6.2-5 1.1-3.2 27.6-18.3 44.8-25.6 5.6-2.3 11.9-2.4 17.8-.2z"/><path d="M162 122.7c-1.2 1.5-1.2 1.6 0 .5 2-1.8 5.4-1.6 4.6.3-.3.8-.1 1.5.4 1.5.6 0 1-.7 1-1.5 0-1.1 1.1-1.5 3.5-1.5 2.7 0 3.8.5 4.5 2.2 1 2.3 1 2.3.7-.2-.2-2.4-.6-2.5-6.8-2.8-5.4-.2-6.8 0-7.9 1.5zM159.3 126.4c-.4.8-2.3 1.6-4.2 1.8-4.7.4-4.9 2.1-.6 4.1 4.5 2.1 5.9 2.1 7.6 0 1.3-1.5 1.2-1.5-.7-.3-1.8 1.1-2.7 1.1-5.3 0-3.8-1.5-4.1-3.3-.5-2.8 1.9.2 3.1-.4 4.1-2 .9-1.2 1.3-2.2 1-2.2-.3 0-1 .6-1.4 1.4zM150.2 134.3c-1.4 1.6-.6 2.7 2 2.7 1.3 0 1.8-.6 1.6-1.7-.4-2.2-2.2-2.7-3.6-1zM145.5 64.2c3.3 1.6 7.3 4.2 8.9 5.7l2.9 2.6-2.8-3.8c-3.8-5.2-7.7-7.7-11.7-7.7-3.2.1-3.1.2 2.7 3.2zM139.5 70c-.3.5-.3 1.4 0 2 .3.5.1 1-.5 1s.2 1.1 1.7 2.5c1.5 1.3 2.2 2.5 1.6 2.5-1.8 0-1.6 2 .2 2 1.9 0 1.9 1.4 0 3-1.8 1.5-1 3.1 1 2.3.8-.3 1.5-.1 1.5.5 0 .5-.6 1.2-1.4 1.5-2 .8-4.9-2.8-4.2-5.1.4-1.2.1-2.2-.7-2.5-1-.4-1.2.3-.9 2.7.7 4.6 3.2 7 10 9.1 2.1.6 2.2.5 1.4-1.2-.5-1-1.5-4.3-2.2-7.3-.7-3-2.6-7-4.1-8.9-3.4-4.1-3-5.1.8-2.6l2.8 1.8-1.9-2.1c-2-2.4-4.1-2.8-5.1-1.2zM103.7 93.4c-.5 3.1-.3 5.4.4 6.2.9 1.1.8 1.8-.1 3-1.1 1.2-1.1 1.5 0 1.2.7-.2 1.5.3 1.8 1.1.3.9 0 1.1-.9.6-.8-.5 0 .7 1.6 2.4 3.1 3.4 8.3 6.6 9.2 5.7.3-.2-1.1-2.2-3.1-4.2-2-2.1-4-5.1-4.5-6.8-.5-1.7-1-2.3-1-1.4-.1 1-.5 1.8-1.1 1.8-.6 0-.6-.9 0-2.6 1.2-3.2 1.3-4.4 0-2.4-.5.8-1.2 1.1-1.7.7-.4-.4-.2-1.6.4-2.6.7-1.2.9-3 .4-4.7-.7-2.7-.8-2.5-1.4 2zm7.7 17.5c-.7.8-5-4.6-4.6-5.8.2-.6 1.4.3 2.6 2.1 1.3 1.8 2.1 3.5 2 3.7zM96.6 123.3c.3 1 .9 1.5 1.2 1.2.3-.3 0-1.1-.7-1.8-1-.9-1.1-.8-.5.6z"/></svg>